<svg width="652" height="97" viewBox="0 0 652 97" fill="none" xmlns="http://www.w3.org/2000/svg">
<path d="M56 5.656V20.12H18.752V43.032H47.296V57.24H18.752V95H0.832001V5.656H56ZM86.627 0.279999V95H68.707V0.279999H86.627ZM99.724 59.288C99.724 52.12 101.132 45.7627 103.948 40.216C106.849 34.6693 110.732 30.4027 115.596 27.416C120.545 24.4293 126.049 22.936 132.108 22.936C137.399 22.936 142.007 24.0027 145.932 26.136C149.943 28.2693 153.143 30.9573 155.532 34.2V24.088H173.58V95H155.532V84.632C153.228 87.96 150.028 90.7333 145.932 92.952C141.921 95.0853 137.271 96.152 131.98 96.152C126.007 96.152 120.545 94.616 115.596 91.544C110.732 88.472 106.849 84.1627 103.948 78.616C101.132 72.984 99.724 66.5413 99.724 59.288ZM155.532 59.544C155.532 55.192 154.679 51.48 152.972 48.408C151.265 45.2507 148.961 42.8613 146.06 41.24C143.159 39.5333 140.044 38.68 136.716 38.68C133.388 38.68 130.316 39.4907 127.5 41.112C124.684 42.7333 122.38 45.1227 120.588 48.28C118.881 51.352 118.028 55.0213 118.028 59.288C118.028 63.5547 118.881 67.3093 120.588 70.552C122.38 73.7093 124.684 76.1413 127.5 77.848C130.401 79.5547 133.473 80.408 136.716 80.408C140.044 80.408 143.159 79.5973 146.06 77.976C148.961 76.2693 151.265 73.88 152.972 70.808C154.679 67.6507 155.532 63.896 155.532 59.544ZM218.218 96.152C212.415 96.152 207.21 95.128 202.602 93.08C197.994 90.9467 194.325 88.088 191.594 84.504C188.949 80.92 187.498 76.952 187.242 72.6H205.29C205.631 75.3307 206.954 77.592 209.258 79.384C211.647 81.176 214.591 82.072 218.09 82.072C221.503 82.072 224.149 81.3893 226.026 80.024C227.989 78.6587 228.97 76.9093 228.97 74.776C228.97 72.472 227.775 70.7653 225.386 69.656C223.082 68.4613 219.37 67.1813 214.25 65.816C208.959 64.536 204.607 63.2133 201.194 61.848C197.866 60.4827 194.965 58.392 192.49 55.576C190.101 52.76 188.906 48.9627 188.906 44.184C188.906 40.2587 190.015 36.6747 192.234 33.432C194.538 30.1893 197.781 27.6293 201.962 25.752C206.229 23.8747 211.221 22.936 216.938 22.936C225.386 22.936 232.127 25.0693 237.162 29.336C242.197 33.5173 244.97 39.192 245.482 46.36H228.33C228.074 43.544 226.879 41.3253 224.746 39.704C222.698 37.9973 219.925 37.144 216.426 37.144C213.183 37.144 210.666 37.7413 208.874 38.936C207.167 40.1307 206.314 41.7947 206.314 43.928C206.314 46.3173 207.509 48.152 209.898 49.432C212.287 50.6267 215.999 51.864 221.034 53.144C226.154 54.424 230.378 55.7467 233.706 57.112C237.034 58.4773 239.893 60.6107 242.282 63.512C244.757 66.328 246.037 70.0827 246.122 74.776C246.122 78.872 244.97 82.5413 242.666 85.784C240.447 89.0267 237.205 91.5867 232.938 93.464C228.757 95.256 223.85 96.152 218.218 96.152ZM300.768 23.064C306.144 23.064 310.923 24.2587 315.104 26.648C319.285 28.952 322.528 32.408 324.832 37.016C327.221 41.5387 328.416 47 328.416 53.4V95H310.496V55.832C310.496 50.2 309.088 45.8907 306.272 42.904C303.456 39.832 299.616 38.296 294.752 38.296C289.803 38.296 285.877 39.832 282.976 42.904C280.16 45.8907 278.752 50.2 278.752 55.832V95H260.832V0.279999H278.752V32.92C281.056 29.848 284.128 27.4587 287.968 25.752C291.808 23.96 296.075 23.064 300.768 23.064ZM341.105 50.2C341.105 41.4107 343.068 33.56 346.993 26.648C351.004 19.6507 356.422 14.232 363.249 10.392C370.161 6.46666 377.884 4.504 386.417 4.504C396.401 4.504 405.148 7.064 412.657 12.184C420.166 17.304 425.414 24.3867 428.401 33.432H407.793C405.745 29.1653 402.844 25.9653 399.089 23.832C395.42 21.6987 391.153 20.632 386.289 20.632C381.084 20.632 376.433 21.8693 372.337 24.344C368.326 26.7333 365.169 30.1467 362.865 34.584C360.646 39.0213 359.537 44.2267 359.537 50.2C359.537 56.088 360.646 61.2933 362.865 65.816C365.169 70.2533 368.326 73.7093 372.337 76.184C376.433 78.5733 381.084 79.768 386.289 79.768C391.153 79.768 395.42 78.7013 399.089 76.568C402.844 74.3493 405.745 71.1067 407.793 66.84H428.401C425.414 75.9707 420.166 83.096 412.657 88.216C405.233 93.2507 396.486 95.768 386.417 95.768C377.884 95.768 370.161 93.848 363.249 90.008C356.422 86.0827 351.004 80.664 346.993 73.752C343.068 66.84 341.105 58.9893 341.105 50.2ZM439.099 59.288C439.099 52.12 440.507 45.7627 443.323 40.216C446.224 34.6693 450.107 30.4027 454.971 27.416C459.92 24.4293 465.424 22.936 471.483 22.936C476.774 22.936 481.382 24.0027 485.307 26.136C489.318 28.2693 492.518 30.9573 494.907 34.2V24.088H512.955V95H494.907V84.632C492.603 87.96 489.403 90.7333 485.307 92.952C481.296 95.0853 476.646 96.152 471.355 96.152C465.382 96.152 459.92 94.616 454.971 91.544C450.107 88.472 446.224 84.1627 443.323 78.616C440.507 72.984 439.099 66.5413 439.099 59.288ZM494.907 59.544C494.907 55.192 494.054 51.48 492.347 48.408C490.64 45.2507 488.336 42.8613 485.435 41.24C482.534 39.5333 479.419 38.68 476.091 38.68C472.763 38.68 469.691 39.4907 466.875 41.112C464.059 42.7333 461.755 45.1227 459.963 48.28C458.256 51.352 457.403 55.0213 457.403 59.288C457.403 63.5547 458.256 67.3093 459.963 70.552C461.755 73.7093 464.059 76.1413 466.875 77.848C469.776 79.5547 472.848 80.408 476.091 80.408C479.419 80.408 482.534 79.5973 485.435 77.976C488.336 76.2693 490.64 73.88 492.347 70.808C494.054 67.6507 494.907 63.896 494.907 59.544ZM548.377 35.096C550.681 31.3413 553.668 28.3973 557.337 26.264C561.092 24.1307 565.358 23.064 570.137 23.064V41.88H565.401C559.769 41.88 555.502 43.2027 552.601 45.848C549.785 48.4933 548.377 53.1013 548.377 59.672V95H530.457V24.088H548.377V35.096ZM577.599 59.288C577.599 52.12 579.007 45.7627 581.823 40.216C584.724 34.6693 588.65 30.4027 593.599 27.416C598.548 24.4293 604.052 22.936 610.111 22.936C614.719 22.936 619.114 23.96 623.295 26.008C627.476 27.9707 630.804 30.616 633.279 33.944V0.279999H651.455V95H633.279V84.504C631.06 88.0027 627.946 90.8187 623.935 92.952C619.924 95.0853 615.274 96.152 609.983 96.152C604.01 96.152 598.548 94.616 593.599 91.544C588.65 88.472 584.724 84.1627 581.823 78.616C579.007 72.984 577.599 66.5413 577.599 59.288ZM633.407 59.544C633.407 55.192 632.554 51.48 630.847 48.408C629.14 45.2507 626.836 42.8613 623.935 41.24C621.034 39.5333 617.919 38.68 614.591 38.68C611.263 38.68 608.191 39.4907 605.375 41.112C602.559 42.7333 600.255 45.1227 598.463 48.28C596.756 51.352 595.903 55.0213 595.903 59.288C595.903 63.5547 596.756 67.3093 598.463 70.552C600.255 73.7093 602.559 76.1413 605.375 77.848C608.276 79.5547 611.348 80.408 614.591 80.408C617.919 80.408 621.034 79.5973 623.935 77.976C626.836 76.2693 629.14 73.88 630.847 70.808C632.554 67.6507 633.407 63.896 633.407 59.544Z" fill="white"/>
</svg>
